<?xml version="1.0" standalone="no"?>
<!DOCTYPE svg PUBLIC "-//W3C//DTD SVG 20010904//EN"
 "http://www.w3.org/TR/2001/REC-SVG-20010904/DTD/svg10.dtd">
<svg version="1.0" xmlns="http://www.w3.org/2000/svg"
 width="904.000000pt" height="904.000000pt" viewBox="0 0 904.000000 904.000000"
 preserveAspectRatio="xMidYMid meet">
<metadata>
Created by potrace 1.11, written by Peter Selinger 2001-2013
</metadata>
<g transform="translate(0.000000,904.000000) scale(0.100000,-0.100000)"
fill="#000000" stroke="none">
<path d="M4265 8875 c-226 -32 -436 -94 -628 -184 -56 -26 -289 -155 -517
-286 -584 -335 -1267 -726 -1955 -1120 -324 -186 -620 -357 -657 -382 -343
-226 -545 -656 -500 -1063 22 -192 94 -389 197 -537 l44 -63 -44 -63 c-173
-247 -241 -577 -180 -872 32 -151 101 -314 186 -435 l40 -57 -46 -66 c-307
-440 -250 -1064 134 -1448 95 -95 153 -134 455 -308 149 -87 550 -319 891
-516 341 -197 888 -514 1215 -704 327 -189 638 -366 690 -393 185 -94 385
-160 604 -200 176 -32 526 -32 702 0 300 55 497 133 841 333 87 50 361 210
608 354 248 144 727 423 1065 620 338 197 723 421 855 497 288 168 347 209
446 309 143 144 244 327 297 538 23 92 26 126 26 261 0 128 -4 172 -23 250
-38 154 -99 289 -187 413 l-34 47 48 73 c143 210 211 451 198 697 -12 236 -82
433 -228 641 -9 13 -3 29 34 85 132 199 198 414 198 644 0 369 -181 720 -482
933 -35 24 -486 291 -1003 592 -517 301 -1187 692 -1488 867 -302 176 -588
338 -635 360 -176 82 -363 139 -562 173 -133 23 -474 29 -605 10z"/>
</g>
</svg>
