<svg xmlns="http://www.w3.org/2000/svg" xmlns:xlink="http://www.w3.org/1999/xlink" viewBox="0 0 112.84 109.1"><defs><style>.cls-1{opacity:0.9;}.cls-2{fill:url(#linear-gradient);}.cls-3{opacity:0.6;}.cls-4{fill:url(#linear-gradient-2);}.cls-5{opacity:0.4;}.cls-6{fill:url(#linear-gradient-3);}</style><linearGradient id="linear-gradient" x1="29.85" y1="68.39" x2="82.99" y2="5.07" gradientUnits="userSpaceOnUse"><stop offset="0" stop-color="#a34abc"/><stop offset="1" stop-color="#2978ff"/></linearGradient><linearGradient id="linear-gradient-2" x1="29.85" y1="86.17" x2="82.99" y2="22.85" xlink:href="#linear-gradient"/><linearGradient id="linear-gradient-3" x1="29.85" y1="103.95" x2="82.99" y2="40.63" xlink:href="#linear-gradient"/></defs><title>triplex logo</title><g id="Layer_2" data-name="Layer 2"><g id="Layer_1-2" data-name="Layer 1"><g class="cls-1"><path class="cls-2" d="M43.48,3.49,7.18,24.29A14.28,14.28,0,0,0,7.14,49L43.45,70a26.38,26.38,0,0,0,26.48,0l35.81-20.84a14.26,14.26,0,0,0,0-24.67L69.88,3.58A26.4,26.4,0,0,0,43.48,3.49Z"/></g><g class="cls-3"><path class="cls-4" d="M43.48,21.27,7.18,42.07a14.28,14.28,0,0,0,0,24.75l36.31,21a26.38,26.38,0,0,0,26.48,0L105.74,66.9a14.26,14.26,0,0,0,0-24.67L69.88,21.36A26.4,26.4,0,0,0,43.48,21.27Z"/></g><g class="cls-5"><path class="cls-6" d="M43.48,39.05,7.18,59.85a14.28,14.28,0,0,0,0,24.75l36.31,21a26.38,26.38,0,0,0,26.48,0l35.81-20.84a14.26,14.26,0,0,0,0-24.67L69.88,39.14A26.4,26.4,0,0,0,43.48,39.05Z"/></g></g></g></svg>