<svg xmlns="http://www.w3.org/2000/svg" xmlns:xlink="http://www.w3.org/1999/xlink" viewBox="0 0 413.21 109.1"><defs><style>.cls-1{opacity:0.9;}.cls-2{fill:url(#linear-gradient);}.cls-3{opacity:0.6;}.cls-4{fill:url(#linear-gradient-2);}.cls-5{opacity:0.4;}.cls-6{fill:url(#linear-gradient-3);}.cls-7{fill:url(#linear-gradient-4);}.cls-8{fill:url(#linear-gradient-5);}.cls-9{fill:url(#linear-gradient-6);}.cls-10{fill:url(#linear-gradient-7);}.cls-11{fill:url(#linear-gradient-8);}.cls-12{fill:url(#linear-gradient-9);}.cls-13{fill:url(#linear-gradient-10);}</style><linearGradient id="linear-gradient" x1="29.85" y1="68.39" x2="82.99" y2="5.07" gradientUnits="userSpaceOnUse"><stop offset="0" stop-color="#a34abc"/><stop offset="1" stop-color="#2978ff"/></linearGradient><linearGradient id="linear-gradient-2" x1="29.85" y1="86.17" x2="82.99" y2="22.85" xlink:href="#linear-gradient"/><linearGradient id="linear-gradient-3" x1="29.85" y1="103.95" x2="82.99" y2="40.63" xlink:href="#linear-gradient"/><linearGradient id="linear-gradient-4" x1="139.72" y1="62.63" x2="392.16" y2="5.92" xlink:href="#linear-gradient"/><linearGradient id="linear-gradient-5" x1="142.89" y1="76.72" x2="395.33" y2="20.01" xlink:href="#linear-gradient"/><linearGradient id="linear-gradient-6" x1="142.51" y1="75.06" x2="394.96" y2="18.36" xlink:href="#linear-gradient"/><linearGradient id="linear-gradient-7" x1="147.05" y1="95.24" x2="399.51" y2="38.54" xlink:href="#linear-gradient"/><linearGradient id="linear-gradient-8" x1="146.48" y1="92.71" x2="398.92" y2="36.01" xlink:href="#linear-gradient"/><linearGradient id="linear-gradient-9" x1="149.71" y1="107.11" x2="402.16" y2="50.41" xlink:href="#linear-gradient"/><linearGradient id="linear-gradient-10" x1="151.83" y1="116.53" x2="404.27" y2="59.83" xlink:href="#linear-gradient"/></defs><title>full logo</title><g id="Layer_2" data-name="Layer 2"><g id="Layer_1-2" data-name="Layer 1"><g class="cls-1"><path class="cls-2" d="M43.48,3.49,7.18,24.29A14.28,14.28,0,0,0,7.14,49L43.45,70a26.38,26.38,0,0,0,26.48,0l35.81-20.84a14.26,14.26,0,0,0,0-24.67L69.88,3.58A26.4,26.4,0,0,0,43.48,3.49Z"/></g><g class="cls-3"><path class="cls-4" d="M43.48,21.27,7.18,42.07a14.28,14.28,0,0,0,0,24.75l36.31,21a26.38,26.38,0,0,0,26.48,0L105.74,66.9a14.26,14.26,0,0,0,0-24.67L69.88,21.36A26.4,26.4,0,0,0,43.48,21.27Z"/></g><g class="cls-5"><path class="cls-6" d="M43.48,39.05,7.18,59.85a14.28,14.28,0,0,0,0,24.75l36.31,21a26.38,26.38,0,0,0,26.48,0l35.81-20.84a14.26,14.26,0,0,0,0-24.67L69.88,39.14A26.4,26.4,0,0,0,43.48,39.05Z"/></g><path class="cls-7" d="M160.86,45.71H146.23V32.64h46.11V45.71H177.71v36.9H160.86Z"/><path class="cls-8" d="M223.47,42.85V57.13a24.68,24.68,0,0,0-3.57-.29q-8.28,0-8.28,8.43V82.61H195.48v-39h15.35v4.21Q215.12,42.85,223.47,42.85Z"/><path class="cls-9" d="M229.07,38.11a7.44,7.44,0,0,1-2.68-5.89,7.43,7.43,0,0,1,2.68-5.89,10.33,10.33,0,0,1,7-2.32,10.63,10.63,0,0,1,7.07,2.21,7.1,7.1,0,0,1,2.64,5.71,7.86,7.86,0,0,1-2.64,6.1,10.11,10.11,0,0,1-7.07,2.4A10.38,10.38,0,0,1,229.07,38.11Zm-1,5.46h16.14v39H228Z"/><path class="cls-10" d="M286.82,45.32a17.69,17.69,0,0,1,6.85,7.1,22,22,0,0,1,2.54,10.71,21.78,21.78,0,0,1-2.54,10.67,17.78,17.78,0,0,1-6.85,7.06,18.69,18.69,0,0,1-9.46,2.47q-6.5,0-9.92-3.36V96.46H251.31V43.57h15.34v3.21q3.5-3.93,10.71-3.93A18.69,18.69,0,0,1,286.82,45.32Zm-8.75,23.45a8.21,8.21,0,0,0,1.79-5.64,8.34,8.34,0,0,0-1.79-5.68,6.15,6.15,0,0,0-9.13,0,8.34,8.34,0,0,0-1.79,5.68,8.21,8.21,0,0,0,1.79,5.64,6.23,6.23,0,0,0,9.13,0Z"/><path class="cls-11" d="M301.27,29.65h16.14v53H301.27Z"/><path class="cls-12" d="M365.88,66.84H338.75a6.58,6.58,0,0,0,2.86,3.39,9.72,9.72,0,0,0,5,1.18,12.52,12.52,0,0,0,4.32-.65,14.73,14.73,0,0,0,3.82-2.21l8.43,8.5q-5.71,6.27-17.07,6.28a28,28,0,0,1-12.42-2.61,19.68,19.68,0,0,1-8.28-7.24,20.21,20.21,0,0,1,0-20.88,19.79,19.79,0,0,1,7.92-7.18,26.08,26.08,0,0,1,22.13-.21,18.6,18.6,0,0,1,7.78,6.92,20,20,0,0,1,2.89,10.92C366.09,63.29,366,64.55,365.88,66.84ZM340.61,55.2a6.41,6.41,0,0,0-2.14,3.86H351a6.57,6.57,0,0,0-2.14-3.82,6.19,6.19,0,0,0-4.14-1.39A6.29,6.29,0,0,0,340.61,55.2Z"/><path class="cls-13" d="M394.72,82.61l-5.36-8.35-6,8.35H365.88l14.77-19.34-14.34-19.7h18.2l5.57,8.28,5.85-8.28h16.92l-14.35,19,14.71,20.06Z"/></g></g></svg>