<svg xmlns="http://www.w3.org/2000/svg" xmlns:xlink="http://www.w3.org/1999/xlink" viewBox="0 0 266.98 72.46"><defs><style>.cls-1{fill:url(#linear-gradient);}.cls-2{fill:url(#linear-gradient-2);}.cls-3{fill:url(#linear-gradient-3);}.cls-4{fill:url(#linear-gradient-4);}.cls-5{fill:url(#linear-gradient-5);}.cls-6{fill:url(#linear-gradient-6);}.cls-7{fill:url(#linear-gradient-7);}</style><linearGradient id="linear-gradient" x1="-6.51" y1="38.62" x2="245.94" y2="-18.08" gradientUnits="userSpaceOnUse"><stop offset="0" stop-color="#a34abc"/><stop offset="1" stop-color="#2978ff"/></linearGradient><linearGradient id="linear-gradient-2" x1="-3.34" y1="52.71" x2="249.1" y2="-3.99" xlink:href="#linear-gradient"/><linearGradient id="linear-gradient-3" x1="-3.71" y1="51.05" x2="248.73" y2="-5.65" xlink:href="#linear-gradient"/><linearGradient id="linear-gradient-4" x1="0.82" y1="71.24" x2="253.28" y2="14.53" xlink:href="#linear-gradient"/><linearGradient id="linear-gradient-5" x1="0.25" y1="68.7" x2="252.69" y2="12" xlink:href="#linear-gradient"/><linearGradient id="linear-gradient-6" x1="3.49" y1="83.11" x2="255.93" y2="26.41" xlink:href="#linear-gradient"/><linearGradient id="linear-gradient-7" x1="5.6" y1="92.53" x2="258.05" y2="35.82" xlink:href="#linear-gradient"/></defs><title>text</title><g id="Layer_2" data-name="Layer 2"><g id="Layer_1-2" data-name="Layer 1"><path class="cls-1" d="M14.63,21.7H0V8.64H46.11V21.7H31.48V58.61H14.63Z"/><path class="cls-2" d="M77.24,18.85V33.12a24.58,24.58,0,0,0-3.57-.28q-8.28,0-8.28,8.42V58.61H49.26v-39H64.6v4.21Q68.89,18.85,77.24,18.85Z"/><path class="cls-3" d="M82.84,14.1a7.47,7.47,0,0,1-2.67-5.89,7.47,7.47,0,0,1,2.67-5.89,10.35,10.35,0,0,1,7-2.32,10.68,10.68,0,0,1,7.07,2.21,7.12,7.12,0,0,1,2.64,5.71A7.88,7.88,0,0,1,96.94,14a10.16,10.16,0,0,1-7.07,2.39A10.35,10.35,0,0,1,82.84,14.1Zm-1,5.46H97.94V58.61H81.81Z"/><path class="cls-4" d="M140.59,21.31a17.78,17.78,0,0,1,6.86,7.1A22.13,22.13,0,0,1,150,39.12a21.86,21.86,0,0,1-2.53,10.67,17.83,17.83,0,0,1-6.86,7.07,18.78,18.78,0,0,1-9.46,2.46q-6.5,0-9.92-3.35V72.46H105.08V19.56h15.35v3.21q3.5-3.91,10.7-3.92A18.78,18.78,0,0,1,140.59,21.31Zm-8.74,23.45a8.17,8.17,0,0,0,1.78-5.64,8.33,8.33,0,0,0-1.78-5.68,6.16,6.16,0,0,0-9.14,0,8.33,8.33,0,0,0-1.78,5.68,8.17,8.17,0,0,0,1.78,5.64,6.22,6.22,0,0,0,9.14,0Z"/><path class="cls-5" d="M155.05,5.64h16.13v53H155.05Z"/><path class="cls-6" d="M219.65,42.83H192.52a6.59,6.59,0,0,0,2.86,3.39,9.66,9.66,0,0,0,5,1.18,12.61,12.61,0,0,0,4.32-.64,15.22,15.22,0,0,0,3.81-2.22l8.43,8.5q-5.72,6.28-17.06,6.28a28.13,28.13,0,0,1-12.42-2.6,19.85,19.85,0,0,1-8.29-7.25,19.13,19.13,0,0,1-2.92-10.42,19.24,19.24,0,0,1,2.89-10.46,19.76,19.76,0,0,1,7.92-7.17,26.13,26.13,0,0,1,22.13-.22A18.5,18.5,0,0,1,217,28.13a20,20,0,0,1,2.89,10.92Q219.86,39.41,219.65,42.83ZM194.38,31.2a6.36,6.36,0,0,0-2.14,3.85H204.8a6.57,6.57,0,0,0-2.14-3.82,6.15,6.15,0,0,0-4.14-1.39A6.24,6.24,0,0,0,194.38,31.2Z"/><path class="cls-7" d="M248.49,58.61l-5.35-8.36-6,8.36H219.65l14.78-19.35-14.35-19.7h18.2l5.57,8.28,5.85-8.28h16.92l-14.35,19L267,58.61Z"/></g></g></svg>